<svg xmlns="http://www.w3.org/2000/svg" viewBox="0 0 128 160" x="0px" y="0px"><g><path d="M121.267,80.866c1.5,2.043,3.065,4.633,2.671,7.292-.514,3.464-2.665,6.44-4.727,9.169-2.868,3.789-6.822,11.962-12.368,12.165-3.325.12-5.87-1.961-8.484-3.763-3.243-2.228-6.536-4.576-10.35-5.692-2.342,1.421-3.579,1-6.511-.666a23.6,23.6,0,0,0-8.2-3.116c-2.69-.4-5.394-.647-8.065-1.149a.79.79,0,0,1-.616-.469c-.044,0-.088.006-.133.006h-.108c-.019,0-.031-.006-.044-.006a38.179,38.179,0,0,1-16.746-4.2,16.505,16.505,0,0,0-1.358,3.135.967.967,0,0,1-.07.615c-.711,1.631-1.612,3.674-3.573,4.03-1.777.324-3.947-.844-5.425-1.682-1.555-.888-3.827-2.252-4.252-4.175-.482-2.209,1.117-3.586,2.906-4.556a.907.907,0,0,1,.794-.051c.006-.007.018-.007.025-.013.99-.977,2.024-1.9,3.071-2.817a33.149,33.149,0,0,1-8.668-13c-.425-1.168-.793-2.349-1.111-3.535-2.017.3-3.42-.533-4.543-2.392-2.1-3.484-5.267-5.584-8.6-7.8-.044-.032-.076-.063-.114-.1a.974.974,0,0,1-.54-1.37c.686-1.333,1.143-3.223,2.126-4.493C13.1,50.077,7.355,47.539,4.7,42.475,2.2,37.722,7.019,31.592,9.881,28.216c3.395-4,7.805-9.411,13.484-9.69,5.483-.267,11.124,1.821,16.15,4.524a8.345,8.345,0,0,1,2.545-2.589.783.783,0,0,1,.894-.678c5.014.45,10.731,1.066,15.122,3.712a37.726,37.726,0,0,1,22.2,2.221c1.624-5.248,7.456-3.37,10.737-.4.127.114.26.241.387.362a.89.89,0,0,1,.33.323,8.671,8.671,0,0,1,2.843,5.058,3.2,3.2,0,0,1-2.469,3.37,36.18,36.18,0,0,1,7.539,14.462c.038.018.07.031.108.05,3.388,2.189,4.962,6.454,7.742,9.328,1.941,2,4.911,5.051,4.638,8.142-.273,3.065-2.31,3.2-4.708,2.214,2.31,1.86,4.9,3.364,7.113,5.375A48.449,48.449,0,0,1,121.267,80.866Zm-3.11,14.7c1.841-2.544,4.8-6.238,3.713-9.614a18.479,18.479,0,0,0-5.1-7.266c-3.833-3.737-8.681-6.415-12.393-10.229-1.517,2.208-2.881,4.531-4.512,6.657-1.529,1.993-3.363,3.7-4.9,5.679-3.09,4-5.616,8.484-9.436,11.847a17.9,17.9,0,0,1,4.087,5.192.939.939,0,0,1,.063.742,29.8,29.8,0,0,1,6.263,3.242c2.609,1.714,5.724,4.81,8.8,5.559,3.928.952,6.479-2.354,8.522-5.2C114.87,99.948,116.558,97.79,118.157,95.563Zm-10.47-28.854c4.671,2.228,1.059-4.321-.159-5.641a39.6,39.6,0,0,1-4.156-4.474,41.583,41.583,0,0,0-3.059-4.671,36.366,36.366,0,0,1,.394,9.818A32.009,32.009,0,0,0,107.687,66.709Zm-4.163-.324c-1.186-.831-2.278-1.706-3.109-2.4a34.348,34.348,0,0,1-1.644,6.32,36.873,36.873,0,0,1-3.87,7.634,51.761,51.761,0,0,0,4.575-5.578C100.808,70.351,102.09,68.321,103.524,66.385ZM98.9,59.2c.121-8.807-2.671-18.193-8.985-24.577a31.952,31.952,0,0,0-2.576-2.335.82.82,0,0,1-.217-.172,34.265,34.265,0,0,0-21.644-7.481c-18.422.241-35.734,14.094-35.124,33.531.273,8.6,2.963,17.488,9,23.847A35.05,35.05,0,0,0,64.422,92.739C82.805,92.708,98.638,77.617,98.9,59.2ZM90.63,32.823c3.039-.438,2.024-2.754.552-4.575a10.248,10.248,0,0,1-2.088,3.116C89.621,31.833,90.135,32.322,90.63,32.823Zm-.876-6.085c-.108-.1-.209-.191-.311-.274a12.8,12.8,0,0,0-1.929-1.326,22.522,22.522,0,0,0-2.151,3.338c.413.267.812.546,1.212.838.374.273.736.552,1.1.838A8.674,8.674,0,0,0,89.754,26.738ZM84.068,91.413c2.907-2.526,4.994-5.717,7.2-8.827a37.637,37.637,0,0,1-9.233,7.348C82.729,90.4,83.408,90.9,84.068,91.413ZM86.886,98.5a.9.9,0,0,1,.647-.5A21.858,21.858,0,0,0,80.1,90.949a36.132,36.132,0,0,1-9.112,3.059A30.283,30.283,0,0,1,78.243,95.6a48.964,48.964,0,0,1,5.171,2.684C85,99.129,85.864,99.079,86.886,98.5ZM85.712,24.4a2.738,2.738,0,0,0-3.687,2.145c.584.291,1.155.6,1.72.933A21.352,21.352,0,0,1,85.712,24.4ZM55.2,24.161c-3.63-1.58-7.945-2.081-11.791-2.431a1.277,1.277,0,0,1-.292.3,6.917,6.917,0,0,0-1.77,1.618,36.194,36.194,0,0,1,5.686,3.706A40.335,40.335,0,0,1,55.2,24.161Zm-10.426,67.8a15.26,15.26,0,0,1,1.123-2.45,35.91,35.91,0,0,1-4.76-3.318c-.837.729-1.655,1.472-2.462,2.233A23.069,23.069,0,0,1,44.776,91.965Zm-.609,2.069a11.316,11.316,0,0,0-1.3-1.168c-.7,1.1-1.371,2.215-2.139,3.262a2.214,2.214,0,0,0,1.828.133A4.715,4.715,0,0,0,44.167,94.034Zm-2.881-2.215c-.546-.317-1.111-.622-1.682-.895a.954.954,0,0,1-.114.571c-.552,1.066-1.422,1.98-1.955,3.059a16.085,16.085,0,0,0,1.428.761A41.959,41.959,0,0,0,41.286,91.819ZM32.827,39.937c3-4.6,7.069-8.18,10.413-12.463-5.432-3.523-12.552-7.4-19.094-7.082-5.3.26-9.183,4.772-12.406,8.567C8.5,32.778,3.313,39.106,7.9,43.8c3.35,3.427,7.856,5.337,12.209,7.184a3.537,3.537,0,0,1,.768-.1,9.565,9.565,0,0,1,4.213,1.034C26.367,47.279,30.257,43.871,32.827,39.937Zm5.26,50.3q-.771-.342-1.523-.667c-1.663.952-2.525,2.158-.818,3.675.082.076.171.14.26.209.571-1,1.307-1.891,1.846-2.925A.868.868,0,0,1,38.087,90.239ZM24.679,61.823c1.409,1.542,2.519,4.765,4.785,4.7a39.732,39.732,0,0,1-.883-10.134C26.71,55,23.943,52.749,21.538,52.78a2.577,2.577,0,0,0-.6.077,1.007,1.007,0,0,1-.52.19c-1.263.641-1.707,2.335-2.272,3.782A33.366,33.366,0,0,1,24.679,61.823Zm4.074-7.653a35.412,35.412,0,0,1,1.884-8.364,18.865,18.865,0,0,0-3.819,7.063C27.484,53.282,28.131,53.726,28.753,54.17Z"/><path d="M119.706,84.921c.393,1.01.45,1.682.19,1.809s-.8-.273-1.44-.952c-.711-.648-1.58-1.523-2.7-2.487a15.449,15.449,0,0,1-2.7-2.938c-.52-.883-.685-1.524-.463-1.714s.824.127,1.611.73a32.5,32.5,0,0,1,2.983,2.328A10.175,10.175,0,0,1,119.706,84.921Z"/><path d="M110.758,75.58c.387.622.47,1.124.254,1.314s-.691.082-1.275-.2A18.485,18.485,0,0,1,107.6,75.46a12.573,12.573,0,0,1-2.011-1.529c-.5-.476-.749-.895-.609-1.162s.622-.317,1.307-.177a7.766,7.766,0,0,1,2.481,1.072A6.857,6.857,0,0,1,110.758,75.58Z"/><path d="M103.816,103.806c.375.647.438,1.142.216,1.326s-.7.057-1.263-.234a16.467,16.467,0,0,1-2.126-1.3,8.765,8.765,0,0,1-1.973-1.8c-.412-.571-.533-1.047-.349-1.269s.679-.146,1.307.1a10.435,10.435,0,0,1,2.253,1.225A7.091,7.091,0,0,1,103.816,103.806Z"/><path d="M95.624,65.313c.038.006.006.254-.083.723a11.872,11.872,0,0,1-.526,2.025,33.37,33.37,0,0,1-3.332,6.923,52.615,52.615,0,0,1-2.989,4.378,27.578,27.578,0,0,1-4.207,4.474,32,32,0,0,1-12.393,6.473,29.559,29.559,0,0,1-3.624.755c-.6.108-1.212.139-1.815.21s-1.173.063-1.757.094a24.235,24.235,0,0,1-6.765-.856,40.008,40.008,0,0,1-10.425-4.639A53.8,53.8,0,0,1,41.5,81.368a11.714,11.714,0,0,1-2.037-1.936,17.082,17.082,0,0,1,2.3,1.612A73.377,73.377,0,0,0,48.1,85.22a41.334,41.334,0,0,0,10.28,4.334,23.722,23.722,0,0,0,6.466.768c.578-.039,1.174-.045,1.745-.1.572-.076,1.142-.108,1.726-.209a31.848,31.848,0,0,0,15.528-6.924,27.715,27.715,0,0,0,4.138-4.258c1.18-1.5,2.189-2.9,3.058-4.251a38.928,38.928,0,0,0,3.579-6.657,18.574,18.574,0,0,0,.711-1.935A2.251,2.251,0,0,1,95.624,65.313Z"/><path d="M94.868,97.334c.413.609.5,1.1.28,1.294s-.686.1-1.25-.133a13.077,13.077,0,0,1-2.164-1.124,6.491,6.491,0,0,1-1.986-1.9c-.343-.622-.362-1.091-.153-1.288s.692-.038,1.257.254A15.016,15.016,0,0,1,92.9,95.569,7.211,7.211,0,0,1,94.868,97.334Z"/><path d="M94.513,58.174c-.178,12.177-7.462,23.556-18.986,28-13.364,5.152-30.244.3-36.938-12.94C33.005,62.178,33.258,48,42.218,38.781a32.567,32.567,0,0,1,29.806-9.023C85.655,32.778,94.285,44.322,94.513,58.174Zm-1.916-.33A31.094,31.094,0,0,0,90.122,46.39a13.9,13.9,0,0,0-2.659.711c-.856.311-1.529.577-2.062.755-1.053.368-1.536.4-1.675.165s.107-.66,1.047-1.358a13.719,13.719,0,0,1,3.566-1.809,8.42,8.42,0,0,1,.939-.254,23.32,23.32,0,0,0-7.354-8.49,9.242,9.242,0,0,1-.94,1.459c-.488.635-.882,1.073-1.174,1.4a5.627,5.627,0,0,1-.7.685.5.5,0,0,1-.464.115c-.121-.045-.2-.172-.216-.419a2.526,2.526,0,0,1,.216-1.073,11.779,11.779,0,0,1,.876-1.694,10.769,10.769,0,0,0,.787-1.517A29.079,29.079,0,0,0,68.7,31.141c-.064,3.1-.457,4.081-.946,4.081s-.894-1.009-.945-4.22c-.863-.038-1.732-.038-2.6.006a32.242,32.242,0,0,0-10.921,2.526,8.768,8.768,0,0,1,.794,2.443c.088.723-.039,1.059-.286,1.149s-.565-.064-.977-.66c-.337-.445-.692-1.2-1.238-2.139-6.942,3.452-12.52,9.429-14.233,17.317a28.684,28.684,0,0,0-.648,5.35,24.936,24.936,0,0,0,3.028-.355,15.865,15.865,0,0,1,2.208-.229,3.91,3.91,0,0,1,1.313.152c.273.095.394.21.394.343s-.057.267-.3.4a6.646,6.646,0,0,1-1.13.437c-.546.166-1.187.381-2.145.622a17.8,17.8,0,0,1-3.363.54,29.545,29.545,0,0,0,2.627,11.118c2-.559,3.325-1.079,4.131-1.365a5.5,5.5,0,0,1,.571-.19,2.858,2.858,0,0,1,.394-.114.528.528,0,0,1,.482.082c.095.089.114.241.006.482a1.947,1.947,0,0,1-.266.419,6.149,6.149,0,0,1-.5.489,11.839,11.839,0,0,1-3.966,1.929A28.593,28.593,0,0,0,47.4,80.511a.023.023,0,0,1,.006-.019,4.427,4.427,0,0,1,.381-.717,7.34,7.34,0,0,1,.8-1.009,10.724,10.724,0,0,1,1.238-1.11c.654-.483.983-.591,1.218-.445.216.134.235.571-.2,1.327a14.2,14.2,0,0,1-.908,1.351,5.023,5.023,0,0,0-.913,1.783l-.083-.012A26.1,26.1,0,0,0,60.7,86.178c.184-3.275.635-4.309,1.13-4.315s.863,1.072.762,4.486c.717.038,1.44.064,2.176.044a28.534,28.534,0,0,0,10.6-2.316c-.4-.837-.71-1.554-.952-2.157a13.913,13.913,0,0,1-.583-1.574c-.235-.819-.178-1.212.057-1.339s.59.051,1.136.717a12.069,12.069,0,0,1,.964,1.4c.324.57.685,1.288,1.1,2.144a28.485,28.485,0,0,0,10.2-8.814,13.037,13.037,0,0,1-3.122-2.925c-.552-.813-.629-1.225-.438-1.409s.622-.082,1.383.444c.711.444,1.688,1.282,3.23,2.3a28.544,28.544,0,0,0,4.2-13.13,10.711,10.711,0,0,1-1.771-.311c-.672-.171-1.161-.323-1.536-.444a4.118,4.118,0,0,1-.8-.336.5.5,0,0,1-.266-.368c-.007-.133.063-.26.254-.374a2.048,2.048,0,0,1,.945-.26,8.031,8.031,0,0,1,1.707.05C91.544,57.749,92.051,57.819,92.6,57.844Z"/><path d="M79.239,50.914c4.2,1.117,7.063,5.287,5.66,9.665A7.781,7.781,0,0,1,76.307,65.9c-4.581-.622-7.063-5.057-5.787-9.462,1.136-3.921,4.208-6.136,8.243-5.615a1.039,1.039,0,0,1,.241.025A.841.841,0,0,1,79.239,50.914ZM77.678,64.05A5.738,5.738,0,0,0,78.5,52.679C70.806,51.5,69.822,64.723,77.678,64.05Z"/><path d="M79.575,29.967a7.167,7.167,0,0,1,1.771,1.079,8.236,8.236,0,0,1-1.923-.691,44.068,44.068,0,0,0-5.305-1.587A41.9,41.9,0,0,0,56.071,29a36.032,36.032,0,0,0-9.315,3.51,26.965,26.965,0,0,0-6.448,4.911,22.444,22.444,0,0,0-3.28,4.4c-.356.552-.559,1.028-.743,1.326s-.279.451-.311.438.006-.2.114-.527a10.855,10.855,0,0,1,.565-1.421,18.852,18.852,0,0,1,3.1-4.721,25.638,25.638,0,0,1,6.524-5.261,34.615,34.615,0,0,1,9.556-3.693,39.359,39.359,0,0,1,18.466.076A31.648,31.648,0,0,1,79.575,29.967Z"/><path d="M68.451,63.606c4.2,1.117,7.063,5.286,5.661,9.665a7.781,7.781,0,0,1-8.593,5.317c-4.581-.622-7.062-5.057-5.786-9.461,1.136-3.922,4.207-6.136,8.242-5.616a1.033,1.033,0,0,1,.241.025A.831.831,0,0,1,68.451,63.606ZM66.89,76.742a5.738,5.738,0,0,0,.825-11.372C60.018,64.19,59.034,77.414,66.89,76.742Z"/><path d="M68.28,60.16c.254.514.2.806.006.978a.859.859,0,0,1-.938,0,12.959,12.959,0,0,1-1.314-.7,2.284,2.284,0,0,1-.819.451,3.262,3.262,0,0,1-2.57-.375,75.39,75.39,0,0,0-8.6,6.054.963.963,0,0,1-.876.184.945.945,0,0,1-.26-.044c-1.561-.52-3.217-.59-4.759-1.168a.959.959,0,0,1-.426-1.586A8.585,8.585,0,0,0,49.808,61.3a1.006,1.006,0,0,1,.647-.583,1.063,1.063,0,0,1,.336-.184c3.4-1.1,6.79-2.2,10.255-3.059a2.82,2.82,0,0,1,.057-.324c-.653-.425-1.3-.844-1.9-1.243-.882-.59-1.643-1.225-2.411-1.79-1.529-1.155-2.83-2.208-4.042-3.141-1.237-.863-2.285-1.662-3.293-2.348s-1.886-1.269-2.64-1.8C43.805,44.74,42.758,43.8,42.9,43.579s1.447.317,4.626,2.113q1.189.676,2.747,1.587c1.041.621,2.2,1.421,3.51,2.284,1.25.9,2.621,1.961,4.124,3.065.755.539,1.53,1.167,2.373,1.726.54.349,1.105.717,1.676,1.085.057-3.446-1.326-6.441-1.891-9.811-.482-2.912-.768-5.85-1.162-8.776a.845.845,0,0,1-.006-.12A.893.893,0,0,1,58.9,35.8a24.081,24.081,0,0,0,1.383-2.627.988.988,0,0,1,1.174-.666,1.027,1.027,0,0,1,.369.209.931.931,0,0,1,.3.337c.679,1.218,1.478,2.354,2.119,3.6a1.093,1.093,0,0,1,.1.349c0,.012.006.019.006.031v.026a.781.781,0,0,1,.019.177V55.008a2.921,2.921,0,0,1,2.589,2.449,4.2,4.2,0,0,1-.031,1.346A4.228,4.228,0,0,1,68.28,60.16ZM64.8,58.993a1.291,1.291,0,0,0,.235-1.4,1.019,1.019,0,0,0-1.13-.7c-.659.146-.926.489-.932.869a1.1,1.1,0,0,1,.114.508C63.382,58.9,64.193,59.418,64.8,58.993ZM62.468,47.342V37.373c-.362-.679-.768-1.332-1.168-1.986-.178.336-.368.666-.552,1,.488,3.611.7,7.285,1.682,10.813C62.442,47.246,62.455,47.3,62.468,47.342Zm-9.253,17.47A82.405,82.405,0,0,1,60.5,59.583c-3.065.806-6.08,1.777-9.094,2.754a9.041,9.041,0,0,1-1.237,1.8C51.185,64.361,52.219,64.507,53.215,64.812Z"/><path d="M36.476,25.652c2.1,1.117,3.21,2.735,2.83,3.173-.388.463-2.006-.311-3.833-1.282-.889-.469-1.694-.9-2.284-1.212-.311-.159-.476-.292-.7-.425-.2-.126-.317-.267-.317-.412a.543.543,0,0,1,.311-.419,2.2,2.2,0,0,1,1-.229A6.254,6.254,0,0,1,36.476,25.652Z"/><path d="M29.317,23.52c.515.5.654.965.47,1.181-.2.235-.628.235-1.161.164a17.09,17.09,0,0,1-2.1-.4,8.148,8.148,0,0,1-2.209-.838c-.539-.343-.793-.711-.717-.99s.521-.425,1.13-.469a7.451,7.451,0,0,1,2.316.215A5.277,5.277,0,0,1,29.317,23.52Z"/><path d="M18.314,45.387c1.866,1.016,3.167,2.26,2.906,2.793s-2.037.12-3.966-.927c-1.872-1.079-3.147-2.367-2.855-2.881S16.442,44.315,18.314,45.387Z"/><path d="M10.052,41.846c.971.781,1.605,1.663,1.333,2.209-.254.514-1.549.361-2.678-.546-1.142-.946-1.523-2.037-1.13-2.468S9.119,41.072,10.052,41.846Z"/></g><text x="0" y="143" fill="#000000" font-size="5px" font-weight="bold" font-family="'Helvetica Neue', Helvetica, Arial-Unicode, Arial, Sans-serif">Created by Hey Rabbit</text><text x="0" y="148" fill="#000000" font-size="5px" font-weight="bold" font-family="'Helvetica Neue', Helvetica, Arial-Unicode, Arial, Sans-serif">from the Noun Project</text></svg>