<svg xmlns="http://www.w3.org/2000/svg" viewBox="0 0 24 30" x="0px" y="0px"><title>bussines, management, career, Watch, wristwatch, time, clock</title><g><path d="M13.82,5.25A6.4,6.4,0,0,0,12,5a7,7,0,0,0-7,7,6.53,6.53,0,0,0,.24,1.8,6.91,6.91,0,0,0,4.94,4.95A6.4,6.4,0,0,0,12,19a7,7,0,0,0,7-7,6.53,6.53,0,0,0-.24-1.8A6.91,6.91,0,0,0,13.82,5.25Zm.3,8.87a1,1,0,0,1-1.41,0l-1.42-1.41a1,1,0,0,1-.21-.32.37.37,0,0,1,0-.14A.73.73,0,0,1,11,12V10a1,1,0,0,1,2,0v1.58l1.12,1.13A1,1,0,0,1,14.12,14.12ZM9.9,19.71h0l-1.41,1.4a2,2,0,0,1-2.82,0L2.88,18.29a2,2,0,0,1,0-2.82l1.4-1.4A7.9,7.9,0,0,0,9.9,19.71ZM21.71,7.12a2,2,0,0,1-.59,1.41l-1.4,1.4A7.9,7.9,0,0,0,14.1,4.29h0l1.41-1.4a2,2,0,0,1,2.82,0l2.83,2.83A2,2,0,0,1,21.71,7.12ZM5.64,7.05A1,1,0,0,1,7.05,5.64l0,.05A7.24,7.24,0,0,0,5.69,7.1ZM18.36,17a1,1,0,0,1,0,1.41,1,1,0,0,1-.7.3,1,1,0,0,1-.71-.3l-.05-.05a7.24,7.24,0,0,0,1.41-1.41Z"/></g><text x="0" y="39" fill="#000000" font-size="5px" font-weight="bold" font-family="'Helvetica Neue', Helvetica, Arial-Unicode, Arial, Sans-serif">Created by Kmg Design</text><text x="0" y="44" fill="#000000" font-size="5px" font-weight="bold" font-family="'Helvetica Neue', Helvetica, Arial-Unicode, Arial, Sans-serif">from the Noun Project</text></svg>